# xmcd
#
# Track frame offsets: 
#        150
#        17807
#        36767
#        57632
#        73862
#        95415
#        114585
#        131297
#        152792
#        171645
#
# Disc length: 2501 seconds
#
# Revision: 0
# Processed by: cddbd v1.5.2PL0 Copyright (c) Steve Scherf et al.
# Submitted via: ExactAudioCopy v0.95b4
#
DISCID=8d09c30a
DTITLE=4 Out of 5 Doctors - 4 Out of 5 Doctors
DYEAR=2000
DGENRE=Blues
TTITLE0=topkapi
TTITLE1=plastico flamingo
TTITLE2=white collar kink
TTITLE3=keltic song
TTITLE4=phuji
TTITLE5=oh harriet
TTITLE6=red handed
TTITLE7=pushmepullu
TTITLE8=tse tse gabor
TTITLE9=10 gone
EXTD=
EXTT0=
EXTT1=
EXTT2=
EXTT3=
EXTT4=
EXTT5=
EXTT6=
EXTT7=
EXTT8=
EXTT9=
PLAYORDER=
